<svg width="423" height="451" viewBox="0 0 423 451" fill="none" xmlns="http://www.w3.org/2000/svg">
<path d="M27.5 369.73L116 369.73C157.145 369.73 190.5 336.376 190.5 295.231L190.5 244.23C190.5 231.252 179.979 220.731 167 220.731L161.864 220.731C151.722 220.731 143.5 212.509 143.5 202.367V202.367C143.5 197.479 145.449 192.793 148.915 189.346L325.5 13.7305" stroke="#00853F" stroke-width="6"/>
<path d="M216.5 425.73V295.73C216.5 273.363 198.368 255.23 176 255.23H165.5C148.931 255.23 135.5 241.799 135.5 225.23V225.23C135.5 208.662 122.069 195.23 105.5 195.23H0" stroke="#EE3124" stroke-width="6"/>
<path d="M22.5 386.23V386.23C22.5 330.45 67.7192 285.23 123.5 285.23H202.75C250.385 285.23 289 246.615 289 198.98V154.98C289 131.646 307.916 112.73 331.25 112.73V112.73C354.584 112.73 373.5 131.646 373.5 154.98V250.23" stroke="#0093D0" stroke-width="6"/>
</svg>
