<svg width="74" height="57" viewBox="0 0 74 57" fill="none" xmlns="http://www.w3.org/2000/svg">
<path d="M1.67492 11.4817L29.6749 1.85668C30.3241 1.63351 31 2.11587 31 2.80237V17.876C29.2748 18.3201 28 19.8862 28 21.75V23.25C28 25.1138 29.2748 26.6799 31 27.124V32C31 32.5523 30.5523 33 30 33H2C1.44772 33 1 32.5523 1 32V27.124C2.72523 26.6799 4 25.1138 4 23.25V21.75C4 19.8862 2.72523 18.3201 1 17.876V12.4274C1 12.0004 1.27112 11.6205 1.67492 11.4817Z" stroke="black" stroke-width="2"/>
<path d="M44.3251 1.85668L72.3251 11.4817C72.7289 11.6205 73 12.0004 73 12.4274V17.876C71.2748 18.3201 70 19.8862 70 21.75V23.25C70 25.1138 71.2748 26.6799 73 27.124V32C73 32.5523 72.5523 33 72 33H44C43.4477 33 43 32.5523 43 32V27.124C44.7252 26.6799 46 25.1138 46 23.25V21.75C46 19.8862 44.7252 18.3201 43 17.876V2.80237C43 2.11587 43.6759 1.63351 44.3251 1.85668Z" stroke="black" stroke-width="2"/>
<path d="M10 27L18 23" stroke="black" stroke-width="2" stroke-linecap="round"/>
<path d="M10 24L18 20" stroke="black" stroke-width="2" stroke-linecap="round"/>
<line x1="64" y1="9" x2="64" y2="33" stroke="black" stroke-width="2" stroke-linecap="round" stroke-dasharray="4 3"/>
<path d="M8.678 44.138L8.594 45.23L6.97 45.146H6.214L6.144 50.172L6.214 53H4.758L4.842 50.298L4.772 45.146H4.016L2.364 45.23L2.266 45.104L2.378 44.012H8.594L8.678 44.138ZM11.368 50.774L11.424 53H10.08L10.136 50.9L10.08 45.986H11.438L11.368 50.774ZM16.491 45.902C17.2563 45.902 17.9237 46.0513 18.493 46.35L18.241 47.54L18.115 47.582C17.8817 47.4047 17.611 47.2647 17.303 47.162C17.0043 47.0593 16.6917 47.008 16.365 47.008C15.077 47.008 14.433 47.8107 14.433 49.416C14.433 50.256 14.601 50.8953 14.937 51.334C15.273 51.7633 15.763 51.978 16.407 51.978C16.7243 51.978 17.0463 51.9267 17.373 51.824C17.6997 51.7213 17.989 51.5813 18.241 51.404L18.381 51.474L18.269 52.664C17.6437 52.9533 16.9997 53.098 16.337 53.098C15.2637 53.098 14.4423 52.79 13.873 52.174C13.3037 51.558 13.019 50.6807 13.019 49.542C13.019 48.3753 13.3177 47.4793 13.915 46.854C14.5217 46.2193 15.3803 45.902 16.491 45.902ZM22.8051 49.276C23.6918 50.424 24.6858 51.5627 25.7871 52.692L25.7591 52.888C25.3204 53 24.8818 53.0793 24.4431 53.126L24.2471 53.042C23.0804 51.642 22.1191 50.4147 21.3631 49.36V49.262L23.6171 46.644L24.0651 45.986L25.6051 45.972L22.8051 49.276ZM21.3211 50.774L21.3771 53H20.0331L20.0891 50.9L20.0331 45.986H21.3911L21.3211 50.774ZM31.5821 51.88L31.6801 51.978L31.5681 53H27.0741L27.1301 50.9L27.0741 45.986H31.6101L31.6941 46.098L31.5961 47.12L29.8181 47.05L28.4181 47.064L28.3901 48.884L29.7341 48.898L30.9521 48.856L31.0221 48.968L30.9381 50.004L29.6221 49.962L28.3761 49.976L28.3621 50.774L28.3901 51.922L29.6921 51.936L31.5821 51.88ZM37.9148 46.098L37.8308 47.176L36.4728 47.078H35.8848L35.8568 50.774L35.8988 53H34.5548L34.6108 50.9L34.5828 47.078H34.0088L32.6228 47.176L32.5248 47.064L32.6228 45.986H37.8448L37.9148 46.098Z" fill="black"/>
<path d="M48.984 43.914C49.9267 43.914 50.804 44.1147 51.616 44.516L51.322 45.86L51.168 45.874C50.7107 45.6033 50.2953 45.412 49.922 45.3C49.5487 45.1787 49.1567 45.118 48.746 45.118C47.8127 45.118 47.1173 45.4027 46.66 45.972C46.2027 46.532 45.974 47.4187 45.974 48.632C45.974 49.7893 46.1887 50.6293 46.618 51.152C47.0473 51.6653 47.7287 51.922 48.662 51.922C48.8953 51.922 49.124 51.9033 49.348 51.866C49.5813 51.8193 49.8707 51.7447 50.216 51.642L50.258 50.732L50.216 49.346L51.574 49.248L51.546 50.508L51.588 52.566C50.4307 52.93 49.4273 53.112 48.578 53.112C47.206 53.112 46.1793 52.734 45.498 51.978C44.8167 51.2127 44.476 50.1207 44.476 48.702C44.476 47.1527 44.8633 45.9673 45.638 45.146C46.422 44.3247 47.5373 43.914 48.984 43.914ZM59.1858 53H57.8278L57.6458 52.132L57.3938 51.362L55.8258 51.348L54.4258 51.362L54.1598 52.062L53.9638 53H52.6338L55.2518 45.986H56.8198L59.1858 53ZM57.0438 50.312L56.0498 47.246H55.9518L54.8178 50.312L55.9238 50.326L57.0438 50.312ZM64.6433 46.098L64.5593 47.176L63.2013 47.078H62.6133L62.5853 50.774L62.6273 53H61.2833L61.3393 50.9L61.3113 47.078H60.7373L59.3513 47.176L59.2533 47.064L59.3513 45.986H64.5733L64.6433 46.098ZM70.6973 51.88L70.7953 51.978L70.6833 53H66.1893L66.2453 50.9L66.1893 45.986H70.7253L70.8093 46.098L70.7113 47.12L68.9333 47.05L67.5333 47.064L67.5053 48.884L68.8493 48.898L70.0673 48.856L70.1373 48.968L70.0533 50.004L68.7373 49.962L67.4913 49.976L67.4773 50.774L67.5053 51.922L68.8073 51.936L70.6973 51.88Z" fill="black"/>
</svg>
